<?xml version="1.0" encoding="UTF-8" standalone="no"?>
<svg width="200" height="60" viewBox="0 0 200 60" fill="none" xmlns="http://www.w3.org/2000/svg">
  <!-- Background gradient -->
  <defs>
    <linearGradient id="logoGradient" x1="0%" y1="0%" x2="100%" y2="100%">
      <stop offset="0%" stop-color="#0ea5e9" />
      <stop offset="100%" stop-color="#8b5cf6" />
    </linearGradient>
  </defs>
  
  <!-- Sim -->
  <path d="M20 15C20 12.2386 22.2386 10 25 10H35C37.7614 10 40 12.2386 40 15V20C40 22.7614 37.7614 25 35 25H25C22.2386 25 20 22.7614 20 20V15Z" fill="url(#logoGradient)"/>
  <path d="M20 35C20 32.2386 22.2386 30 25 30H35C37.7614 30 40 32.2386 40 35V40C40 42.7614 37.7614 45 35 45H25C22.2386 45 20 42.7614 20 40V35Z" fill="url(#logoGradient)"/>
  <path d="M20 25H40V30H20V25Z" fill="url(#logoGradient)"/>
  
  <!-- Work -->
  <path d="M50 15L55 45H60L65 25L70 45H75L80 15H75L72.5 35L67.5 15H62.5L57.5 35L55 15H50Z" fill="white"/>
  <path d="M85 15C85 12.2386 87.2386 10 90 10H95C97.7614 10 100 12.2386 100 15V40C100 42.7614 97.7614 45 95 45H90C87.2386 45 85 42.7614 85 40V15Z" fill="white"/>
  <path d="M85 25H100V30H85V25Z" fill="white"/>
  <path d="M105 15C105 12.2386 107.239 10 110 10H120C122.761 10 125 12.2386 125 15V20C125 22.7614 122.761 25 120 25H110C107.239 25 105 22.7614 105 20V15Z" fill="white"/>
  <path d="M105 25H110V45H105V25Z" fill="white"/>
  <path d="M115 25H125V45H120V30H115V25Z" fill="white"/>
  
  <!-- Connecting lines -->
  <path d="M130 15L135 15L140 45L145 15L150 45L155 15L160 15" stroke="url(#logoGradient)" stroke-width="2" stroke-linecap="round"/>
  
  <!-- Decorative elements -->
  <circle cx="170" cy="20" r="5" fill="url(#logoGradient)" opacity="0.8"/>
  <circle cx="180" cy="30" r="5" fill="url(#logoGradient)" opacity="0.6"/>
  <circle cx="170" cy="40" r="5" fill="url(#logoGradient)" opacity="0.4"/>
</svg>
